<?xml version="1.0" encoding="UTF-8"?>
<svg width="512px" height="512px" viewBox="0 0 512 512" version="1.1" xmlns="http://www.w3.org/2000/svg" xmlns:xlink="http://www.w3.org/1999/xlink">
    <!-- Generator: Sketch 43.1 (39012) - http://www.bohemiancoding.com/sketch -->
    <title>Group 5</title>
    <desc>Created with Sketch.</desc>
    <defs></defs>
    <g id="Page-1" stroke="none" stroke-width="1" fill="none" fill-rule="evenodd">
        <g id="Group-5" fill-rule="nonzero" fill="#BCBBBB">
            <path d="M256,0 C114.615,0 0,114.615 0,256 C0,397.385 114.615,512 256,512 C397.385,512 512,397.385 512,256 C512,114.615 397.385,0 256,0 Z M408.027,408.027 C388.267,427.786 365.271,443.294 339.673,454.121 C333.171,456.871 326.568,459.285 319.872,461.367 L319.872,423 C319.872,402.833 312.956,388 299.122,378.5 C307.79,377.667 315.747,376.5 322.997,375 C330.247,373.5 337.915,371.333 345.997,368.5 C354.081,365.667 361.331,362.292 367.747,358.375 C374.165,354.458 380.331,349.375 386.247,343.125 C392.165,336.875 397.122,329.792 401.122,321.875 C405.122,313.958 408.29,304.458 410.622,293.375 C412.956,282.292 414.122,270.083 414.122,256.75 C414.122,230.917 405.706,208.917 388.872,190.75 C396.54,170.75 395.706,149 386.372,125.5 L380.122,124.75 C375.79,124.25 367.997,126.083 356.747,130.25 C345.497,134.417 332.872,141.25 318.872,150.75 C299.04,145.25 278.456,142.5 257.123,142.5 C235.623,142.5 215.123,145.25 195.623,150.75 C186.79,144.75 178.415,139.792 170.498,135.875 C162.581,131.958 156.248,129.292 151.498,127.875 C146.748,126.458 142.331,125.583 138.248,125.25 C134.165,124.917 131.54,124.833 130.373,125 C129.206,125.167 128.373,125.333 127.873,125.5 C118.54,149.167 117.706,170.917 125.373,190.75 C108.54,208.917 100.123,230.917 100.123,256.75 C100.123,270.083 101.29,282.292 103.623,293.375 C105.956,304.458 109.123,313.958 113.123,321.875 C117.123,329.792 122.081,336.875 127.998,343.125 C133.915,349.375 140.081,354.458 146.498,358.375 C152.915,362.292 160.165,365.667 168.248,368.5 C176.331,371.333 183.998,373.5 191.248,375 C198.498,376.5 206.456,377.667 215.123,378.5 C201.456,387.833 194.623,402.667 194.623,423 L194.623,462.115 C187.074,459.868 179.633,457.213 172.323,454.121 C146.726,443.294 123.729,427.786 103.97,408.027 C84.212,388.269 68.703,365.271 57.877,339.673 C46.679,313.195 41,285.043 41,256 C41,226.957 46.679,198.805 57.879,172.325 C68.706,146.728 84.214,123.731 103.972,103.972 C123.73,84.213 146.728,68.705 172.325,57.879 C198.805,46.679 226.957,41 256,41 C285.043,41 313.195,46.679 339.676,57.879 C365.274,68.706 388.27,84.214 408.03,103.972 C427.788,123.73 443.296,146.728 454.122,172.325 C465.32,198.805 471,226.957 471,256 C471,285.043 465.32,313.195 454.121,339.675 C443.295,365.271 427.785,388.27 408.027,408.027 Z" id="Shape"></path>
        </g>
    </g>
</svg>