<?xml version="1.0" encoding="UTF-8"?>
<svg width="50px" height="50px" viewBox="0 0 50 50" version="1.1" xmlns="http://www.w3.org/2000/svg" xmlns:xlink="http://www.w3.org/1999/xlink">
    <!-- Generator: Sketch 43.1 (39012) - http://www.bohemiancoding.com/sketch -->
    <title>Group 2</title>
    <desc>Created with Sketch.</desc>
    <defs></defs>
    <g id="Page-1" stroke="none" stroke-width="1" fill="none" fill-rule="evenodd">
        <g id="Group-2" fill-rule="nonzero" fill="#BCBBBB">
            <path d="M29.35,21.298 C27.225,21.298 26.276,22.466 25.745,23.286 L25.745,21.582 L21.743,21.582 C21.795,22.71 21.743,33.623 21.743,33.623 L25.745,33.623 L25.745,26.896 C25.745,26.537 25.768,26.176 25.876,25.919 C26.166,25.199 26.824,24.454 27.93,24.454 C29.378,24.454 29.957,25.558 29.957,27.178 L29.957,33.62 L33.959,33.62 L33.96,33.62 L33.96,26.715 C33.958,23.019 31.983,21.298 29.35,21.298 Z M25.742,23.328 L25.717,23.328 C25.725,23.314 25.737,23.301 25.742,23.287 L25.742,23.328 Z" id="Shape"></path>
            <rect id="Rectangle-path" x="15.523" y="21.582" width="4.002" height="12.041"></rect>
            <path d="M24.826,0 C11.137,0 0,11.137 0,24.826 C0,38.514 11.137,49.652 24.826,49.652 C38.514,49.652 49.652,38.514 49.652,24.826 C49.652,11.137 38.516,0 24.826,0 Z M37.991,36.055 C37.991,37.111 37.115,37.965 36.032,37.965 L13.451,37.965 C12.371,37.965 11.494,37.111 11.494,36.055 L11.494,13.211 C11.494,12.156 12.371,11.301 13.451,11.301 L36.032,11.301 C37.114,11.301 37.991,12.157 37.991,13.211 L37.991,36.055 Z" id="Shape"></path>
            <path d="M17.551,15.777 C16.183,15.777 15.287,16.675 15.287,17.857 C15.287,19.012 16.156,19.937 17.498,19.937 L17.524,19.937 C18.92,19.937 19.789,19.012 19.789,17.857 C19.762,16.676 18.921,15.777 17.551,15.777 Z" id="Shape"></path>
        </g>
    </g>
</svg>