<?xml version="1.0" encoding="UTF-8"?>
<svg width="236px" height="230px" viewBox="0 0 236 230" version="1.1" xmlns="http://www.w3.org/2000/svg" xmlns:xlink="http://www.w3.org/1999/xlink">
    <!-- Generator: Sketch 43.1 (39012) - http://www.bohemiancoding.com/sketch -->
    <title>Group 3</title>
    <desc>Created with Sketch.</desc>
    <defs></defs>
    <g id="Page-1" stroke="none" stroke-width="1" fill="none" fill-rule="evenodd">
        <g id="Group-3">
            <ellipse id="Oval-3" fill="#BCBBBB" cx="118" cy="115" rx="118" ry="115"></ellipse>
            <path d="M68.5340803,84.2157554 C68.6968378,82.6076572 68.0836,81.018231 66.8828198,79.93592 L54.6512605,65.2010582 L54.6512605,63 L92.6302521,63 L121.985994,127.380952 L147.794585,63 L184,63 L184,65.2010582 L173.542017,75.2281011 C172.640424,75.9153477 172.193188,77.0448862 172.380019,78.1628454 L172.380019,151.837155 C172.193188,152.955114 172.640424,154.084652 173.542017,154.771899 L183.755369,164.798942 L183.755369,167 L132.38282,167 L132.38282,164.798942 L142.963119,154.527337 C144.002801,153.487948 144.002801,153.182246 144.002801,151.592593 L144.002801,92.0417402 L114.585901,166.755438 L110.610644,166.755438 L76.3622782,92.0417402 L76.3622782,142.115814 C76.0767278,144.221069 76.7759199,146.3406 78.2581699,147.863022 L92.0186741,164.55438 L92.0186741,166.755438 L53,166.755438 L53,164.55438 L66.7605042,147.863022 C68.2319621,146.338076 68.8903838,144.204485 68.5340803,142.115814 L68.5340803,84.2157554 Z" id="Shape" fill="#FFFFFF" fill-rule="nonzero"></path>
        </g>
    </g>
</svg>