<?xml version="1.0" encoding="UTF-8"?>
<svg width="380px" height="390px" viewBox="0 0 380 390" version="1.1" xmlns="http://www.w3.org/2000/svg" xmlns:xlink="http://www.w3.org/1999/xlink">
    <!-- Generator: Sketch 43.1 (39012) - http://www.bohemiancoding.com/sketch -->
    <title>Group 5</title>
    <desc>Created with Sketch.</desc>
    <defs></defs>
    <g id="Page-1" stroke="none" stroke-width="1" fill="none" fill-rule="evenodd">
        <g id="Group-5" transform="translate(25.000000, 25.000000)">
            <ellipse id="Oval-4" stroke="#BCBBBB" stroke-width="50" fill="#BCBBBB" cx="165" cy="169.974874" rx="165" ry="169.974874"></ellipse>
            <g id="mail" transform="translate(37.000000, 79.000000)" fill-rule="nonzero" fill="#FFFFFF">
                <path d="M238.440293,185.856429 L20.9070122,185.856429 C9.38306707,185.856429 0,176.418397 0,164.808186 L0,21.2844264 C0,9.6742156 9.38306707,0.236183443 20.9070122,0.236183443 L238.440293,0.236183443 C249.964238,0.236183443 259.347305,9.6742156 259.347305,21.2844264 L259.347305,164.808186 C259.347305,176.418397 249.964238,185.856429 238.440293,185.856429 Z M20.9070122,8.65548064 C13.9909726,8.65548064 8.36280488,14.3216677 8.36280488,21.2844264 L8.36280488,164.808186 C8.36280488,171.770945 13.9909726,177.437132 20.9070122,177.437132 L238.440293,177.437132 C245.356332,177.437132 250.9845,171.770945 250.9845,164.808186 L250.9845,21.2844264 C250.9845,14.3216677 245.356332,8.65548064 238.440293,8.65548064 L20.9070122,8.65548064 Z" id="Shape"></path>
                <path d="M129.673652,114.19979 C124.112387,114.19979 118.551122,112.339126 114.319543,108.626216 L7.45125915,14.8605027 C5.71179573,13.3281906 5.52781402,10.676112 7.04984451,8.92489815 C8.571875,7.15684574 11.2145213,6.9884598 12.9539848,8.51235259 L119.813905,102.278066 C125.166101,106.967614 134.19793,106.959195 139.533399,102.278066 L246.368232,8.52077189 C248.099332,6.9800405 250.733616,7.15684574 252.272372,8.93331745 C253.794402,10.6845313 253.610421,13.3366099 251.870957,14.868922 L145.027762,108.617796 C140.796183,112.339126 135.234918,114.19979 129.673652,114.19979 Z" id="Shape"></path>
            </g>
        </g>
    </g>
</svg>